HIERARCHY
ROOT Hips
{
	OFFSET 0.00000 0.00000 0.00000
	CHANNELS 6 Xposition Yposition Zposition Zrotation Yrotation Xrotation 
	JOINT LHipJoint
	{
		OFFSET 0 0 0
		CHANNELS 3 Zrotation Yrotation Xrotation
		JOINT LeftUpLeg
		{
			OFFSET 1.57338 -1.94743 0.52196
			CHANNELS 3 Zrotation Yrotation Xrotation
			JOINT LeftLeg
			{
				OFFSET 2.60333 -7.15259 0.00000
				CHANNELS 3 Zrotation Yrotation Xrotation
				JOINT LeftFoot
				{
					OFFSET 2.77855 -7.63400 0.00000
					CHANNELS 3 Zrotation Yrotation Xrotation
					JOINT LeftToeBase
					{
						OFFSET 0.19847 -0.54529 2.28466
						CHANNELS 3 Zrotation Yrotation Xrotation
						End Site
						{
							OFFSET 0.00000 -0.00000 1.17993
						}
					}
				}
			}
		}
	}
	JOINT RHipJoint
	{
		OFFSET 0 0 0
		CHANNELS 3 Zrotation Yrotation Xrotation
		JOINT RightUpLeg
		{
			OFFSET -1.61527 -1.94743 0.52196
			CHANNELS 3 Zrotation Yrotation Xrotation
			JOINT RightLeg
			{
				OFFSET -2.53829 -6.97390 0.00000
				CHANNELS 3 Zrotation Yrotation Xrotation
				JOINT RightFoot
				{
					OFFSET -2.80762 -7.71387 0.00000
					CHANNELS 3 Zrotation Yrotation Xrotation
					JOINT RightToeBase
					{
						OFFSET -0.30536 -0.83898 2.28801
						CHANNELS 3 Zrotation Yrotation Xrotation
						End Site
						{
							OFFSET -0.00000 -0.00000 1.21323
						}
					}
				}
			}
		}
	}
	JOINT LowerBack
	{
		OFFSET 0 0 0
		CHANNELS 3 Zrotation Yrotation Xrotation
		JOINT Spine
		{
			OFFSET -0.04381 1.99497 -0.19778
			CHANNELS 3 Zrotation Yrotation Xrotation
			JOINT Spine1
			{
				OFFSET -0.01959 2.01295 -0.04372
				CHANNELS 3 Zrotation Yrotation Xrotation
				JOINT Neck
				{
					OFFSET 0 0 0
					CHANNELS 3 Zrotation Yrotation Xrotation
					JOINT Neck1
					{
						OFFSET -0.05459 1.76913 0.09708
						CHANNELS 3 Zrotation Yrotation Xrotation
						JOINT Head
						{
							OFFSET 0.09461 1.77368 -0.11172
							CHANNELS 3 Zrotation Yrotation Xrotation
							End Site
							{
								OFFSET 0.03812 1.78157 -0.04834
							}
						}
					}
				}
				JOINT LeftShoulder
				{
					OFFSET 0 0 0
					CHANNELS 3 Zrotation Yrotation Xrotation
					JOINT LeftArm
					{
						OFFSET 3.50922 1.24034 -0.28866
						CHANNELS 3 Zrotation Yrotation Xrotation
						JOINT LeftForeArm
						{
							OFFSET 5.40188 -0.00000 0.00000
							CHANNELS 3 Zrotation Yrotation Xrotation
							JOINT LeftHand
							{
								OFFSET 3.68559 -0.00000 0.00000
								CHANNELS 3 Zrotation Yrotation Xrotation
								JOINT LeftFingerBase
								{
									OFFSET 0 0 0
									CHANNELS 3 Zrotation Yrotation Xrotation
									JOINT LeftHandIndex1
									{
										OFFSET 0.61753 -0.00000 0.00000
										CHANNELS 3 Zrotation Yrotation Xrotation
										End Site
										{
											OFFSET 0.49787 -0.00000 0.00000
										}
									}
								}
								JOINT LThumb
								{
									OFFSET 0 0 0
									CHANNELS 3 Zrotation Yrotation Xrotation
									End Site
									{
										OFFSET 0.50547 -0.00000 0.50547
									}
								}
							}
						}
					}
				}
				JOINT RightShoulder
				{
					OFFSET 0 0 0
					CHANNELS 3 Zrotation Yrotation Xrotation
					JOINT RightArm
					{
						OFFSET -2.95373 1.39649 -0.27346
						CHANNELS 3 Zrotation Yrotation Xrotation
						JOINT RightForeArm
						{
							OFFSET -6.10670 -0.00000 -0.00000
							CHANNELS 3 Zrotation Yrotation Xrotation
							JOINT RightHand
							{
								OFFSET -3.63052 -0.00000 0.00000
								CHANNELS 3 Zrotation Yrotation Xrotation
								JOINT RightFingerBase
								{
									OFFSET 0 0 0
									CHANNELS 3 Zrotation Yrotation Xrotation
									JOINT RightHandIndex1
									{
										OFFSET -0.58385 -0.00000 0.00000
										CHANNELS 3 Zrotation Yrotation Xrotation
										End Site
										{
											OFFSET -0.47071 -0.00000 0.00000
										}
									}
								}
								JOINT RThumb
								{
									OFFSET 0 0 0
									CHANNELS 3 Zrotation Yrotation Xrotation
									End Site
									{
										OFFSET -0.47790 -0.00000 0.47790
									}
								}
							}
						}
					}
				}
			}
		}
	}
}
MOTION
Frames: 7
Frame Time: .0083333
3.8733 18.6761 0.6908 0 0 0 0 0 0 -21 0 0 0 0 0 0 0 0 0 0 0 0 0 0 21 0 0 0 0 0 0 0 0 0 0 0 0 0 0 0 0 0 0 0 0 0 0 -16 0 0 21 0 0 11 0 0 0 -8 0 0 0 0 0 0 0 0 0 0 0 0 0 0 0 0 0 0 0 0 8 0 0 0 0 0 0 0 0 0 0 0 0 0 0 0 0 0
3.8733 18.6761 0.6908 14.1825 -76.3206 -12.1118 0.0000 0.0000 0.0000 -25.3870 -9.0604 -2.7739 1.2923 7.2027 20.3173 0.6380 8.9824 -20.9237 0.0211 0.9378 2.5777 0.0000 0.0000 0.0000 16.7095 23.7089 -1.0139 -2.0152 -8.8977 25.4760 -1.0442 -5.9994 -22.3558 -0.0137 0.7554 -2.0760 -3.5124 3.1166 9.5685 -1.8204 3.6284 0.4312 -0.4270 1.8328 -5.0142 -4.8257 0.0638 -7.2763 5.2920 0.4046 -3.2299 2.5248 0.2635 0.2116 0.0000 0.0000 0.0000 -77.5104 0.1216 9.6432 13.1203 -21.4633 -2.4971 -0.0000 -0.0000 8.1946 20.1276 20.4509 7.2973 -7.1250 0.0000 -0.0000 -8.5036 51.4457 -1.3583 0.0000 0.0000 0.0000 75.7057 -6.3550 25.2473 -19.1305 29.5805 -5.0951 0.0000 0.0000 13.5743 -32.5082 10.3743 -6.5465 7.1250 -0.0000 -0.0000 -3.8324 -17.7483 -2.4873
3.8736 18.6753 0.6962 14.5399 -76.4347 -12.2002 0.0000 0.0000 0.0000 -25.3841 -8.9007 -3.2924 1.3210 7.2793 20.5454 0.6559 8.7719 -20.9109 0.0215 0.9474 2.6042 0.0000 0.0000 0.0000 16.5208 23.9564 -1.2955 -2.0172 -8.9019 25.4888 -1.0349 -6.0581 -22.3138 -0.0145 0.7788 -2.1403 -3.6895 3.1567 9.5201 -1.8111 3.6635 0.3477 -0.3245 1.8559 -5.0875 -4.9622 -0.0335 -7.0650 5.2188 0.2897 -4.0895 2.5190 0.1989 -0.0912 -0.0000 0.0000 0.0000 -76.6376 -0.0910 9.9542 13.2000 -21.5795 -2.5264 -0.0000 -0.0000 7.8861 20.0343 20.6072 7.3135 -7.1250 0.0000 -0.0000 -8.6482 51.5906 -1.4126 -0.0000 0.0000 0.0000 74.9224 -6.0970 25.2554 -19.3137 29.8066 -5.1858 0.0000 0.0000 13.7174 -32.1305 10.4992 -6.5287 7.1250 -0.0000 -0.0000 -3.5562 -17.6501 -2.3150
3.8697 18.6747 0.6997 12.8462 -76.6137 -10.6529 0.0000 0.0000 0.0000 -24.8906 -8.5643 -3.2951 1.3159 7.2658 20.5053 0.6586 8.6217 -20.8052 0.0229 0.9770 2.6855 0.0000 0.0000 0.0000 17.0811 24.1168 -1.1648 -2.0323 -8.9330 25.5860 -1.0336 -6.1434 -22.3594 -0.0142 0.7682 -2.1112 -3.4440 3.1397 9.7903 -1.6449 3.6650 0.3577 -0.3037 1.8540 -5.2235 -4.9576 -0.0677 -6.8313 5.0562 0.2436 -4.9760 2.4615 0.1666 -0.4098 0.0000 -0.0000 0.0000 -75.7403 -0.3266 9.9906 13.2720 -21.6844 -2.5529 -0.0000 -0.0000 7.4408 19.9267 20.6819 7.2962 -7.1250 0.0000 -0.0000 -8.7801 51.6489 -1.4470 0.0000 -0.0000 0.0000 74.0651 -5.7751 25.3646 -19.4824 30.0136 -5.2700 0.0000 0.0000 13.8951 -32.2618 10.6962 -6.6823 7.1250 -0.0000 -0.0000 -3.6267 -17.4040 -2.3807
3.8543 18.6699 0.7170 13.5966 -76.5834 -11.5585 0.0000 0.0000 0.0000 -25.1538 -8.3043 -3.0854 1.3151 7.2637 20.4990 0.6670 8.5294 -20.8061 0.0194 0.8981 2.4685 0.0000 0.0000 0.0000 16.9212 23.9294 -0.9780 -2.0474 -8.9642 25.6833 -1.0602 -5.9392 -22.4550 -0.0151 0.7921 -2.1770 -3.6248 3.0921 9.9032 -1.7054 3.5717 0.4613 -0.2548 1.8087 -5.1832 -5.0163 -0.0869 -6.6433 5.0856 0.2232 -5.8265 2.4833 0.1490 -0.7111 0.0000 -0.0000 0.0000 -74.7034 -0.6045 9.8968 13.3460 -21.7921 -2.5803 -0.0000 -0.0000 6.9415 19.8430 20.6163 7.2415 -7.1250 0.0000 -0.0000 -8.8405 51.5671 -1.4393 0.0000 -0.0000 0.0000 73.2026 -5.4072 25.6593 -19.7181 30.3012 -5.3884 0.0000 0.0000 13.7785 -32.4563 10.4793 -6.5984 7.1250 -0.0000 -0.0000 -3.7850 -17.6323 -2.4661
3.8424 18.6661 0.7441 16.1675 -76.4316 -13.8118 0.0000 0.0000 0.0000 -25.9264 -8.4528 -3.2581 1.3264 7.2935 20.5879 0.6744 8.5849 -20.9266 0.0163 0.8255 2.2689 0.0000 0.0000 0.0000 15.9405 23.5938 -1.3764 -2.0499 -8.9693 25.6994 -1.0742 -5.5653 -22.3347 -0.0200 0.9131 -2.5098 -4.0732 3.0671 9.6169 -1.9732 3.4859 0.4541 -0.2558 1.7711 -5.0391 -5.0486 -0.1640 -6.5207 5.1126 0.1241 -6.6297 2.5005 0.0919 -0.9831 -0.0000 -0.0000 0.0000 -73.5426 -0.9725 9.7248 13.3954 -21.8638 -2.5987 -0.0000 -0.0000 6.8259 19.4694 20.5844 7.0851 -7.1250 0.0000 -0.0000 -9.1985 51.4705 -1.4764 -0.0000 -0.0000 0.0000 72.4103 -5.0259 25.7738 -19.9592 30.5931 -5.5105 0.0000 0.0000 13.4639 -32.4456 10.0591 -6.3362 7.1250 -0.0000 -0.0000 -3.8220 -18.1245 -2.4489
3.8312 18.6655 0.7575 15.2989 -76.4460 -12.7828 0.0000 0.0000 0.0000 -25.7476 -8.6805 -3.3659 1.3323 7.3091 20.6345 0.6806 8.6621 -21.0543 0.0177 0.8587 2.3602 0.0000 0.0000 0.0000 16.0608 23.6398 -1.5586 -2.0565 -8.9828 25.7415 -1.0642 -5.6688 -22.3148 -0.0260 1.0415 -2.8630 -3.8565 3.0234 9.5013 -1.9680 3.4591 0.4034 -0.3624 1.7545 -5.0139 -5.0715 -0.2556 -6.4094 5.0712 0.0015 -7.4140 2.4949 0.0235 -1.2473 -0.0000 0.0000 0.0000 -72.3399 -1.3974 9.6538 13.3662 -21.8215 -2.5878 -0.0000 -0.0000 6.7599 19.2512 20.4588 6.9597 -7.1250 0.0000 -0.0000 -9.3701 51.3048 -1.4661 -0.0000 0.0000 0.0000 71.4975 -4.6920 25.9072 -20.2001 30.8827 -5.6337 0.0000 0.0000 12.8792 -32.6229 10.0218 -6.3560 7.1250 -0.0000 -0.0000 -3.9498 -18.1463 -2.5292
